# xmcd
#
# Track frame offsets: 
#        150
#        23603
#        47611
#        68474
#        92521
#        111471
#        139997
#        164858
#        194266
#        216071
#
# Disc length: 3173 seconds
#
# Revision: 0
# Processed by: cddbd v1.5.2PL0 Copyright (c) Steve Scherf et al.
# Submitted via: ExactAudioCopyFreeDBPlugin 1.0
#
DISCID=8a0c630a
DTITLE=Morblus - A Touch Of Blues
DYEAR=2013
DGENRE=Blues
TTITLE0=Rock Me Baby
TTITLE1=Damn Your Eyes
TTITLE2=I've Been A Fool
TTITLE3=What is Hip
TTITLE4=Doodlin
TTITLE5=I'd Rather Go Blind
TTITLE6=I Just Wanna Make Love To You
TTITLE7=Dr. Feelgood
TTITLE8=Tore Down
TTITLE9=Piece Of My Heart
EXTD=
EXTT0=
EXTT1=
EXTT2=
EXTT3=
EXTT4=
EXTT5=
EXTT6=
EXTT7=
EXTT8=
EXTT9=
PLAYORDER=
